<svg width="83" height="20" fill="none" xmlns="http://www.w3.org/2000/svg"><g clip-path="url(#a)" fill="#00BEFA"><path d="m45.1836 10.5843 3.8008 6.0169 3.5024.0061-5.3967-8.5351-1.9065 2.5121ZM77.5089 9.97907c1.876-1.42856 2.6986-2.91159 2.5642-4.82442C79.8786 2.37015 77.6128.499695 75.03.499695h-7.4128V16.6074h2.948V9.97907h3.478l4.1665 6.62833h3.4781l-4.1789-6.62833Zm-.2925-4.81836c0 1.23486-.8708 1.96125-2.2049 1.96125h-4.4463V3.34473h4.4463c1.6815 0 2.2049 1.15012 2.2049 1.81598ZM51.421.49353h-3.7399L39.9759 10.6751V.49353h-2.9603V15.1787c0 .5388.3167 1.2107 1.1634 1.3983.335.0787 1.0111 0 1.4131-.5327C39.6409 15.9778 51.427.49353 51.427.49353M63.7935 7.12177h-5.8169v2.85107h5.8169V7.12177Z"/><path d="M65.2908.49353H53.7422V15.1727c0 .793.6456 1.4346 1.4436 1.4346h10.105v-2.845h-8.5945V3.35067h8.5945V.49353ZM31.0944.49353V10.6751L23.3893.49353H19.625V16.5952h2.9541V4.34946c3.4964 4.58839 8.8626 11.65254 8.8991 11.69484.402.5267 1.0781.6114 1.4131.5327.8467-.1937 1.1634-.8595 1.1634-1.3983V.49353h-2.9603ZM7.57728 1.3652 0 16.6073h3.30135L9.00869 5.16664 14.7099 16.6073h3.2709L10.4584 1.41363c-.2802-.562956-.85282-.9201-1.48631-.9201-.59688 0-1.13898.338982-1.4009.86562"/><path d="M11.6877 14.3251H9.73857s-.03044-.0182-.03044-.0363l.37767-4.1405c0-.0302-.0365-.0484-.0549-.0242l-4.20278 5.4662s.00001.0484.02437.0484h1.95525s.03044.0181.03044.0363l-.37766 4.1404c0 .0303.03653.0484.05479.0242l4.20289-5.4661s0-.0484-.0244-.0484"/></g><defs><clipPath id="a"><path fill="#fff" d="M0 0h83v20H0z"/></clipPath></defs></svg>
