<svg width="65" height="20" fill="none" xmlns="http://www.w3.org/2000/svg"><g clip-path="url(#a)" fill="#000"><path d="M.0351562 14.1334V.324951H2.43372V14.1334H.0351562ZM8.5745 4.11597c-3.07528 0-5.20341 2.39115-5.20341 5.12807 0 3.05456 2.31517 5.15886 5.22731 5.15886 2.7638 0 5.1621-2.0656 5.1621-5.16547 0-2.60669-1.9873-5.12146-5.186-5.12146Zm-.02825 2.33992c1.60935 0 2.79395 1.26689 2.79395 2.79693 0 1.62228-1.306 2.80568-2.7505 2.80568-1.7068 0-2.78094-1.368-2.78094-2.80129 0-1.57103 1.21272-2.80132 2.73749-2.80132ZM19.7854 4.11597c-3.0752 0-5.2034 2.39115-5.2034 5.12807 0 3.05456 2.3152 5.15886 5.2273 5.15886 2.7638 0 5.1622-2.0656 5.1622-5.16547 0-1.82544-.7818-2.63539-.7818-2.63539l.6649-.23054V4.40288h-3.4067s-.7385-.28691-1.6625-.28691Zm-.0282 2.33992c1.6094 0 2.794 1.26689 2.794 2.79693 0 1.62228-1.3061 2.80568-2.7506 2.80568-1.7068 0-2.7809-1.368-2.7809-2.80129 0-1.57103 1.2127-2.80132 2.7375-2.80132ZM22.5355 14.8083c0 1.6223-1.306 2.8146-2.7505 2.8146-1.7068 0-2.7853-1.3813-2.7853-2.8146h-2.4333c0 3.0546 2.3152 5.1589 5.2273 5.1589 2.7638 0 5.1621-2.059 5.1621-5.1589h-2.4203ZM25.9336 14.1334V4.40283h2.3986v9.73057h-2.3986ZM30.6612 14.1334V6.58235H29.375V4.4028h1.2862V1.41473h2.3986V4.4028h1.3209v2.17955h-1.3209v7.55105h-2.3986ZM28.7157 1.63913c0 .8871-.7111 1.60624-1.5883 1.60624-.8772 0-1.5883-.71914-1.5883-1.60624 0-.887097.7111-1.6062321 1.5883-1.6062321.8772 0 1.5883.7191351 1.5883 1.6062321ZM39.7731 4.10931c-3.0898 0-5.0817 2.39241-5.0817 5.22255 0 2.92464 1.9985 5.07754 5.1317 5.07754 2.9227 0 4.3604-1.8456 4.3604-1.8456l-1.6033-1.6237s-1.2107 1.3205-2.7267 1.3205c-1.2637 0-2.2741-.7133-2.6267-2.0213h7.4738v-.66796c0-2.6651-1.5253-5.46203-4.9275-5.46203Zm-.076 2.1356c1.1049 0 2.2349.59779 2.4876 2.02574h-5.023c.1989-1.00376 1.0672-2.02574 2.5354-2.02574ZM50.6982 14.4106c-3.0986 0-5.2099-2.3866-5.2099-5.20052 0-2.90401 2.3862-5.1026 5.1999-5.1026 2.7202 0 4.1125 1.9419 4.1125 1.9419l-1.6732 1.68441s-.9693-1.26642-2.4507-1.26642c-1.6418 0-2.7645 1.27016-2.7645 2.77995 0 1.59418 1.1942 2.81728 2.7461 2.81728 1.5052 0 2.4667-1.2644 2.4667-1.2644l1.69 1.6835s-1.3788 1.9269-4.1169 1.9269ZM55.6914 14.1405V.289856H58.09V5.37863s.9184-1.27112 2.9162-1.27112c2.5116 0 3.9666 1.88807 3.9666 4.30288v5.73011h-2.3986V8.777c0-1.62231-.9987-2.29537-2.1052-2.29537-1.2606 0-2.379.7255-2.379 2.42091v5.23796h-2.3986Z"/></g><defs><clipPath id="a"><path fill="#fff" d="M0 0h65v20H0z"/></clipPath></defs></svg>
