<svg width="90" height="38" fill="none" xmlns="http://www.w3.org/2000/svg"><g clip-path="url(#a)"><path d="M89.9099 13.1491c-.1335-.2438-.3428-.4052-.5947-.451-.2762-.0549-.5826.0366-.8375.2499-.0516.0428-.1001.0823-.1518.1249-.3733.3077-.7587.6246-1.062 1.0208-.3034.3962-.6069.7922-.9103 1.1882-1.1865 1.5509-2.4154 3.1505-3.5261 4.8021-1.4687 2.1846-2.9252 4.4303-4.3362 6.6028-1.15 1.7732-2.3395 3.6046-3.526 5.3932-1.1471 1.7246-2.2212 2.8489-3.4866 3.6441-.5764.3627-.971.3962-1.3168.1157-.1214-.1005-.4947-.4022-.0334-1.1944.1396-.2407.2761-.4813.4156-.7221.6312-1.103 1.2805-2.2425 2.0696-3.2297 1.3837-1.7399 2.8342-3.4796 4.2361-5.1617 1.2714-1.5235 2.5823-3.0987 3.8476-4.6741 1.672-2.0841 3.2346-4.1682 3.9629-6.7247.358-1.2583.2732-2.404-.2458-3.309-.4916-.8532-1.3594-1.45958-2.5155-1.74908-.4005-.10051-.801-.17364-1.2259-.25293-.1001-.01836-.2033-.03657-.3064-.05793.0243-.16461.0485-.33509.0788-.4997.3459-1.75505.1184-3.38823-.6524-4.72588-.7798-1.34984-2.0877-2.33404-3.7778-2.851957-3.1376-.959829-6.2176-.7068952-9.1519.749627-3.8568 1.9165-6.6363 5.18901-8.5055 10.01235-.1153.2987-.4036.582-.6131.7709-.3004.2743-.6341.5363-.9558.7892-.6282.4937-1.2805 1.0056-1.766 1.6514-1.766 2.3492-3.6109 4.9786-5.6381 8.0409-.7312 1.1031-1.4443 2.2426-2.1362 3.3457-1.5688 2.5045-3.1922 5.0975-5.113 7.4072-.6767.8104-1.5323 1.5143-2.3577 2.1938l-.1912.1584c-.2185.1798-.6584.4236-1.1531.0336-.2913-.2286-.2457-.4814-.1335-.9445.0121-.0518.0243-.1005.0364-.1524.0183-.0823.0426-.1737.0788-.2316.2094-.3382.4127-.6885.6099-1.0268.443-.7586.9012-1.5448 1.4474-2.2243 1.5809-1.9623 3.2135-3.9397 4.7914-5.8502 1.487-1.7976 3.0223-3.6564 4.5122-5.5029 1.5871-1.9652 2.5884-3.7173 3.1559-5.5059.4491-1.4198.3064-2.7636-.4036-3.7782-.71-1.01778-1.9237-1.61183-3.4137-1.66976-2.0148-.07915-4.0237.50587-5.9687 1.73986-3.0375 1.9257-6.1841 4.0555-9.6161 6.5145-.8314.5942-1.408.6459-2.2061.198-.5492-.3107-.616-.5119-.619-.585-.0061-.1433.1729-.3505.4946-.5759.6798-.4723 1.4536-.9201 2.3001-1.3254 3.705-1.7764 6.5877-3.8666 8.8179-6.38647.9711-1.09991 2.1301-2.61121 2.464-4.56743.2002-1.18222-.1062-2.28831-.8435-3.034776-.7434-.752636-1.8541-1.06952-3.0496-.8745146C39.5321.278402 38.2729.948734 37.0409 2.10658c-4.3453 4.08895-8.0171 8.66252-10.9088 13.59552-.6857 1.167-1.2168 2.5076-1.5385 3.8757-.2428 1.039.0213 2.0262.707 2.6418.6827.6093 1.681.7586 2.6703.3991 1.2289-.4479 2.5155-1.1091 4.0448-2.0781.6676-.4235 1.1288-.4509 1.763-.1127.9376.5028 1.8813 1.0878 2.1939 2.2244.264.9537.2336 1.9836-.0849 3.0622-.5797 1.95-1.8328 3.6228-3.9508 5.2651-2.7887 2.1664-5.99 3.6198-9.78 4.4456-3.6717.8014-6.6606.7952-9.4007-.0152-2.76444-.8196-4.47586-2.4712-5.2284-5.0488-.07282-.253-.04855-.3077.21234-.5027 2.16965-1.6058 4.28766-3.1781 6.39356-4.7929 2.106-1.6118 3.9842-3.4675 5.5864-5.5181 1.1865-1.5174 2.5672-3.5954 2.6885-6.2096.0516-1.0907-.2853-2.1115-.9224-2.797-.5007-.5393-1.141-.83182-1.848-.84702-1.1743-.02438-2.13.14023-2.8342.49672-1.056.5302-2.6005 1.3712-3.8112 2.5229-4.0813 3.8849-6.57867 8.9276-7.42831 14.9788-.16693 1.1914-.53706 1.7733-1.41097 2.2212-.83451.4266-1.6356.9323-2.41241 1.4198-.36713.2316-.746544.4692-1.122813.6947-.816226.4906-.6494394 1.0818-.47637 1.3895.300444.5392.785953.6307 1.441393.2711.16079-.0883.31558-.1828.46423-.2743.06669-.0396.13351-.0823.2002-.1219l3.52608-2.1055c.62202 1.9074 1.681 3.3853 3.22863 4.5034 1.95114 1.4108 4.26944 2.1389 7.09454 2.2274 6.2054.198 11.9284-1.621 17.0111-5.4084 2.8068-2.0903 4.3847-4.4426 4.8247-7.1939.2366-1.4747.1639-2.6234-.2215-3.6136-.4188-1.0695-1.2229-1.9409-2.4518-2.66-.1881-.1097-.3854-.2102-.5918-.3139.3095-.2285.6191-.4539.9225-.6795.968-.7129 1.8844-1.3864 2.8221-2.0597l.0516-.0366c2.2878-1.6423 4.6548-3.3364 7.316-4.3724 1.0985-.4266 2.1999-.6673 3.1862-.6917.8648-.0214 1.5264.2316 1.9086.7313.3914.5119.4704 1.2705.2185 2.1359-.622 2.148-1.9906 3.964-3.2256 5.4997-1.2199 1.5143-2.4942 3.0256-3.7293 4.4881-1.3564 1.6058-2.7583 3.2664-4.0904 4.9391-1.1288 1.4138-2.1999 3.0378-3.2833 4.9605-.8163 1.4533-.6373 2.8184.4916 3.7477.4947.4083 1.0833.6094 1.6872.6094.6978 0 1.4171-.2712 2.0391-.8074 1.1197-.9659 2.5428-2.27 3.6292-3.8148 1.4231-2.0232 2.7917-4.1317 4.1147-6.1701.8496-1.3101 1.7297-2.6691 2.6156-3.9854 1.5021-2.2366 3.1558-4.6009 5.0584-7.2274.3094-.4296.707-.7953 1.1288-1.1823.0273-.0243.0516-.0487.0788-.0731.0062.1189.0092.2376.0122.3535.0272.7221.0515 1.4046.1335 2.0841.2457 2.0719 2.0755 3.7113 4.1632 3.7325 2.3487.0244 4.4576-.6156 6.2631-1.8983 1.2804-.9111 2.115-2.27 2.2879-3.7265.1608-1.3437-.2428-2.6508-1.135-3.6869-1.3594-1.5752-3.268-2.19078-5.6683-1.82816-.7949.11887-1.5779.35046-2.4062.59416-.1578.0458-.3156.0945-.4764.1403.1214-.2042.2427-.4052.3611-.60326.5341-.89272 1.0377-1.73684 1.6235-2.51987 2.9313-3.89711 6.5179-5.60341 10.9665-5.21942 1.7721.15242 3.0859.73128 3.9113 1.71548.7768.92929 1.0986 2.20299.9619 3.79343-.0577.63994-.1001.9323-.2245 1.07856-.1244.14926-.4127.23458-.9953.39001-1.7812.46615-3.2073 1.43197-4.233 2.87017-.6646.9323-.704 1.9195-.1093 2.7758.5462.7862 1.3807 1.0695 2.4791.841.968-.201 1.7934-.7587 2.3881-1.615.4067-.588.7647-1.2188 1.1076-1.8282.2185-.387.4429-.783.6767-1.1638.0819-.1341.2397-.259.3064-.2773.6525.0395 1.2047.131 1.6902.2803.9194.2865 1.3898 1.0359 1.2259 1.9592-.1153.6551-.3156 1.2889-.5765 1.8374-1.2199 2.5564-3.0436 4.7716-4.8095 6.9135l-.1123.1341c-.7981.972-1.6173 1.953-2.4092 2.9037-1.487 1.7854-3.0223 3.629-4.5001 5.4753-.8558 1.0696-1.8995 2.5229-2.3729 4.2872-.2489.9292-.0637 1.8891.5007 2.5624.4976.5942 1.235.8959 2.027.8258.8922-.0792 1.8023-.448 2.376-.9659 1.1166-1.0024 2.3911-2.2182 3.3924-3.6533 1.593-2.2792 3.1285-4.6528 4.6123-6.9501.6099-.9415 1.2411-1.9165 1.8662-2.8702.3703-.5666.7434-1.1486 1.1016-1.7093 1.6567-2.596 3.3712-5.2803 5.7017-7.4132.2732-.2438.3733-.8775.1942-1.2096l.0001.0003ZM27.346 20.8304c-.3459.0853-.6525.0244-.8192-.1614-.1518-.1707-.1761-.4326-.0667-.7375.5006-1.3742 1.053-2.8245 1.8449-4.1103 2.9525-4.7898 6.4209-8.99763 10.3049-12.51075.8739-.79221 1.6902-1.22179 2.5672-1.35586.1305-.02136.2579-.03054.3763-.03054.4461 0 .8132.13708 1.056.39919.3156.34126.4097.87752.264 1.51129-.3428 1.48692-1.2714 2.61121-2.1939 3.63499-1.9482 2.16328-4.4303 3.94588-7.8107 5.60938-.9103.448-1.939.9537-2.81 1.6272-.9346.7221-1.3898 1.5844-1.2836 2.4254.1093.847.7677 1.5722 1.8601 2.0445-.9893.7099-2.0695 1.3559-3.2893 1.6546v-.0002ZM7.59492 26.9365c.20334-.9232.41268-1.8769.69484-2.7818 1.25319-4.022 3.11024-7.206 5.68044-9.7381 1.2411-1.225 2.7887-2.5167 4.846-2.8337.4916-.0762.8769-.0062 1.1439.201.2792.2194.443.6002.4917 1.1365.1426 1.5752-.4947 2.8945-1.49 4.3876-2.1362 3.2054-5.1372 5.6613-7.7833 7.7119-.9224.7161-1.8873 1.4138-2.82205 2.0871-.31258.2254-.63116.457-.94974.6886.06369-.2895.12752-.576.18821-.8593v.0002ZM65.1094 11.6346c.0667 0 .1336 0 .2002.003h.0183c.5402-.0183 1.4231.2376 2.1697.8502.6494.5332 1.0347 1.2553 1.0832 2.0292.0516.847-.2913 1.7063-.9649 2.4162-1.1773 1.2371-2.7582 1.6727-4.1511 1.9348-.4218.0792-.8709.1493-1.3017.1249-1.7144-.0945-2.6066-1.1152-2.646-3.0348-.0151-.6429.1001-1.3162.2093-1.9684.0364-.2163.0758-.4417.1063-.6611.0121-.0762.0879-.1889.1365-.2164 1.3503-.7708 2.91-1.4777 5.1404-1.4777l-.0002.0001Zm12.2591-.2437c-.3854.5788-.7859 1.1792-1.2289 1.7154-.1972.2408-.5522.451-1.0772.646-.082.0305-.3278-.0366-.4308-.1249-.0213-.0761-.0031-.2865.0546-.387.6282-1.0877 1.6052-1.6636 2.8675-2.1269-.0636.0945-.1245.1859-.185.2774h-.0002Z" fill="#0BB705"/></g><defs><clipPath id="a"><path fill="#fff" d="M0 0h90v38H0z"/></clipPath></defs></svg>
