<svg width="20" height="20" fill="none" xmlns="http://www.w3.org/2000/svg"><path d="M5.00016 16.0162s3.10184-3.7013 5.00004-5.5995c1.8981-1.89815 2.9166-1.66666 3.9832-.92672 1.0666.73992 2.6201 2.59342 2.6201 2.59342M8.51867 7.40744c0 .61365-.49747 1.11111-1.11111 1.11111-.61365 0-1.11112-.49746-1.11112-1.11111s.49747-1.11111 1.11112-1.11111c.61364 0 1.11111.49746 1.11111 1.11111ZM3.3335 14.1667c-.00001 1.3807 1.11928 2.5 2.5 2.5h8.3333c1.3807 0 2.5-1.1193 2.5-2.5V5.83337c0-1.38071-1.1193-2.5-2.5-2.5H5.8335c-1.38071 0-2.5 1.11929-2.5 2.5v8.33333Z" stroke="#068C0B" stroke-width="2" stroke-linejoin="round"/></svg>
