<svg width="20" height="20" fill="none" xmlns="http://www.w3.org/2000/svg"><path d="M20 0v20H0V0h20Z" fill="#fff" fill-opacity=".01"/><path d="M16.6668 6.24992c0 1.61083-2.9847 2.91667-6.6666 2.91667-3.68194 0-6.6667-1.30584-6.6667-2.91667m13.3333 0c0-1.61083-2.9847-2.91667-6.6666-2.91667-3.68194 0-6.6667 1.30584-6.6667 2.91667m13.3333 0v8.33338c0 1.6108-2.9847 2.9166-6.6666 2.9166-3.68194 0-6.6667-1.3058-6.6667-2.9166V6.24992m13.3333 4.16668c0 1.6108-2.9847 2.9167-6.6666 2.9167-3.68194 0-6.6667-1.3059-6.6667-2.9167" stroke="#068C0B" stroke-width="2"/></svg>
