<svg width="20" height="20" fill="none" xmlns="http://www.w3.org/2000/svg"><path d="M7.25809 13.0943c-2.87762-2.6335-3.63376-5.361-3.79008-7.06768-.09532-1.04062.72331-1.83859 1.75577-1.99983l1.18949-.18577c1.17107-.18289 2.27574.5972 2.49512 1.76198l.18992 1.00839c.08631.45827-.16746.9127-.60291 1.0796-.49761.19073-.7414.7478-.48726 1.21621.30415.56057.77161 1.2871 1.38784 1.851.61622.564 1.38122.9654 1.96652 1.2188.489.2117 1.0224-.0804 1.1683-.5929.1278-.4485.558-.7414 1.0221-.696l1.0212.1c1.1797.1156 2.0544 1.147 1.9757 2.3296L16.47 14.319c-.0694 1.0426-.7918 1.9286-1.8368 1.9257-1.7138-.0049-4.4975-.5169-7.37511-3.1504Z" stroke="#068C0B" stroke-width="2"/></svg>
