<svg width="20" height="20" fill="none" xmlns="http://www.w3.org/2000/svg"><path d="M17.5 10c0 4.1421-3.3579 7.5-7.5 7.5-4.14214 0-7.5-3.3579-7.5-7.5 0-4.14214 3.35786-7.5 7.5-7.5 4.1421 0 7.5 3.35786 7.5 7.5Z" stroke="#068C0B" stroke-width="2" stroke-linecap="round"/><path d="M7.08629 13.3334v-.8766l.96952-.0975v-.0389c-.95952-.5649-1.38931-1.5487-1.38931-2.66884 0-1.53897.7996-2.71754 2.30885-3.07793v-.74026h.70964v.63312c.09995-.00974.2099-.00974.32981-.00974.11 0 .2099 0 .3199.00974v-.63312h.7096v.74026c1.5193.37013 2.2889 1.60715 2.2889 3.36039h-1.3094c0-1.16883-.2898-1.96753-.9795-2.32792v2.31818h-.7096V7.4113c-.1-.01948-.2099-.01948-.3199-.01948-.11991 0-.22986 0-.32981.01948v2.51298h-.70964V7.6061c-.68966.34091-.9995 1.10065-.9995 2.1526 0 1.539.88955 2.5422 2.26885 2.5422h2.6587v1.0325H7.08629Z" fill="#068C0B"/></svg>
