<svg width="20" height="20" fill="none" xmlns="http://www.w3.org/2000/svg"><path d="m12.6357 2.40746-.8314.55553v.00009l.8314-.55562Zm-.4598-.45983-.5556.83145.0001.00004.5555-.83149Zm-4.35185 0-.55557-.83147-.00001.00001.55558.83146Zm-.45983.45983-.83147-.55557-.00001.00001.83148.55556Zm-2.3605 3.52038-.99703.07704.99703-.07704Zm9.99258 0-.9971-.07708v.00004l.9971.07704Zm-.1532 1.98222-.997-.07704v.00001l.997.07703Zm-1.3998 3.98774.8274.5617-.8274-.5617Zm-.5006.7374.8273.5618-.8273-.5618Zm-5.88536 0 .82735-.5616-.00001-.0001-.82734.5617Zm-.50065-.7374.82734-.5617-.82734.5617Zm-1.3998-3.98774-.99703.07704.99703-.07704ZM11 14.1667c0-.5522-.4477-1-1-1-.55229 0-1 .4478-1 1h2Zm-2 4.1667c0 .5523.44771 1 1 1 .5523 0 1-.4477 1-1H9Zm.16667-12.24998c-.55229 0-1 .44771-1 1 0 .55228.44771 1 1 1v-2Zm1.66663 2c.5523 0 1-.44772 1-1 0-.55229-.4477-1-1-1v2Zm2.0834-3.08334h1v-.41667h-2v.41667h1Zm0-.41667h1c0-.56437.0012-1.06293-.0403-1.47044-.0431-.42422-.1406-.85923-.4092-1.26112l-.8315.55561-.8314.55562c.0124.01848.0553.08626.0824.35232.0288.28278.03.66201.03 1.26801h1Zm-.281-2.17595.8315-.55552c-.1945-.29121-.4445-.54123-.7357-.7358l-.5556.83149-.5555.83149c.0728.04864.1352.11112.1839.18387l.8314-.55553Zm-.4598-.45983.5556-.83144c-.4019-.268555-.8368-.366043-1.2611-.409197C11.063.665539 10.5644.666748 10 .666748V2.66675c.606 0 .9853.00121 1.268.02997.2661.02707.3339.07002.3523.08236l.5556-.83145ZM10 1.66675V.666748c-.5644 0-1.06295-.001209-1.47045.040245-.42421.043155-.85919.140642-1.26107.409167l.55557.83147.55557.83147c.01849-.01236.08628-.05531.35234-.08238.28279-.02876.66202-.02997 1.26804-.02997v-1Zm-2.17595.28088-.55558-.83146c-.29117.19455-.54116.44455-.73572.73572l.83147.55557.83146.55558c.04864-.0728.11115-.1353.18395-.18394l-.55558-.83147Zm-.45983.45983-.83148-.55556c-.26852.40188-.36601.83687-.40916 1.26108-.04146.4075-.04025.90606-.04025 1.47043h2c0-.606.00121-.98523.02998-1.26802.02707-.26607.07002-.33387.08238-.35236l-.83147-.55557Zm-.28089 2.17595h-1v.41667h2v-.41667h-1ZM5.00372 5.92784l.99702-.07704c-.00956-.12384.09388-.26739.27438-.26739v-2c-1.30379 0-2.37098 1.09434-2.26843 2.42147l.99703-.07704Zm1.2714-1.34443v1h7.44978v-2H6.27512v1Zm7.44978 0v1c.1804 0 .2839.14354.2743.26735l.9971.07708.997.07707c.1026-1.32715-.9646-2.4215-2.2684-2.4215v1Zm1.2714 1.34443-.9971-.07704-.1531 1.98222.997.07704.997.07704.1532-1.98222-.997-.07704Zm-.1532 1.98222-.997-.07703c-.0966 1.25024-.5197 2.45667-1.2301 3.50317l.8273.5616.8274.5617c.9047-1.3327 1.4458-2.87277 1.5694-4.47242l-.997-.07702Zm-1.3998 3.98774-.8273-.5617-.5007.7374.8274.5617.8273.5618.5007-.7375-.8274-.5617Zm-.5006.7374-.8274-.5617c-.2836.4178-.7681.6766-1.2955.6766v2c1.1792 0 2.2882-.5781 2.9502-1.5531l-.8273-.5618Zm-2.1229 1.1149v-1H9.18017v2h1.63963v-1Zm-1.63963 0v-1c-.52737 0-1.01186-.2588-1.29548-.6765l-.82735.5616-.82735.5617c.66198.9751 1.77101 1.5532 2.95018 1.5532v-1Zm-2.12283-1.1149.82734-.5617-.50065-.7374-.82734.5617-.82734.5617.50065.7374.82734-.5617Zm-.50065-.7374.82734-.5617c-.71049-1.0464-1.13349-2.25282-1.23011-3.50309l-.99703.07705-.99703.07704c.12362 1.59961.66468 3.1397 1.5695 4.4724l.82733-.5617Zm-1.3998-3.98774.99703-.07705-.15318-1.98222-.99702.07705-.99703.07704.15317 1.98222.99703-.07704ZM10 14.1667H9v4.1667h2v-4.1667h-1Zm-.83333-7.08328v1h1.66663v-2H9.16667v1Z" fill="#068C0B"/></svg>
