<svg width="18" height="18" fill="none" xmlns="http://www.w3.org/2000/svg"><path d="M18 0v18H0V0h18Z" fill="#fff" fill-opacity=".01"/><path d="m14.015 8.71202-2.1734-.5822m2.1734.5822.5823-2.1732m-.5823 2.1732c-.0957-.17077-.1946-.34666-.2965-.52793-.0915-.16283-.1818-.32144-.2703-.47479-.0886-.15339-.1809-.31093-.2761-.47169-1.7841-3.01062-2.6761-4.51593-4.17186-4.51593-1.01834 0-1.75693.69771-2.68764 2.09323M4.72495 7.41298l.58238 2.17319m-.58238-2.17319-2.1733.5822m2.1733-.5822c-.05891.1003-.11651.19918-.17263.29639-.0885.15329-.17873.31183-.27025.47459-1.7152 3.05054-2.5728 4.57584-1.82492 5.87114.47115.816 1.33993 1.1258 2.79333 1.2533m4.59106-1.4918c-.72228.3717-1.21399.8709-1.59106 1.591.37978.7168.87233 1.2162 1.59106 1.591m5.52606-5.6885c.5028 1.162.6103 1.9923.1757 2.745-.7479 1.2953-2.4976 1.3151-5.99715 1.3548-.18666.0022-.36902.0033-.54597.0033-.17688 0-.35918-.0011-.54576-.0033-.02496-.0002-.04983-.0005-.0746-.0008" stroke="#6D6D6D" stroke-width="2" stroke-linecap="round" stroke-linejoin="round"/><path d="M9.84154 13.8166c-.56075.2886-.98253.654-1.31958 1.14-.18789.2709-.1869.6306.00192.9009.33834.4843.75989.8502 1.31766 1.1411M6.3126 4.81491c.93071-1.39552 1.6693-2.09323 2.68764-2.09323 1.49576 0 2.38776 1.50531 4.17186 4.51593.0952.16076.1875.3183.2761.47169.0885.15335.1788.31196.2703.47479.0847.15063.1673.29755.2477.44091m1.4014 2.6851c.5028 1.162.6103 1.9923.1757 2.745-.7479 1.2953-2.4976 1.3151-5.99715 1.3548-.18666.0022-.36902.0033-.54597.0033-.17688 0-.35918-.0011-.54576-.0033-.02496-.0002-.04983-.0005-.0746-.0008m-3.12934-.1007c-1.4534-.1275-2.32218-.4373-2.79333-1.2533-.74788-1.2953.10972-2.8206 1.82492-5.87114.09152-.16276.18175-.3213.27025-.47459.03982-.06898.08039-.1388.12164-.20937m7.16844.63187c.5303.34135 1.0576.52391 1.647.57281.3286.02726.6396-.15347.7793-.45212.2502-.53515.3563-1.08318.3294-1.71168m-9.29585 3.0416c.03048-.62989-.07509-1.17787-.32744-1.71276-.14067-.29817-.45272-.47719-.78118-.4488-.58858.05086-1.11624.23299-1.64706.57057" stroke="#6D6D6D" stroke-width="2" stroke-linecap="round" stroke-linejoin="round"/></svg>
