<svg width="279" height="150" fill="none" xmlns="http://www.w3.org/2000/svg"><rect width="278.158" height="150" rx="12" fill="#FDEDC8"/><g opacity=".32" clip-path="url(#a)"><path d="M28.3867 37.6435c4.0188 7.229 7.0295 8.8943 16.4023 9.2579-6.863 2.9988-10.024 8.296-9.6353 16.0971-1.3884-3.1985-3.5329-5.725-6.5422-7.4399-3.0347-1.7277-6.2935-2.2355-9.8903-1.6944 6.9076-3.1508 10.2319-8.3665 9.6655-16.2207Z" fill="#8F3511"/></g><g opacity=".32" clip-path="url(#b)"><path d="M68.654 117.588c-1.817 3.018-3.5937 6.062-5.4712 9.042-.9709 1.539-2.7099 1.894-4.0838 1.024-1.3812-.872-1.7559-2.576-.9043-4.153.2143-.396.4682-.769.7067-1.15 1.6433-2.611 3.2899-5.223 4.9307-7.83-.429-.538-.8704-.185-1.2554-.101-2.9038.639-5.7971 1.324-8.7017 1.96-2.2765.497-3.8514-.331-4.221-2.164-.3635-1.807.6483-3.119 2.8531-3.628 3.2675-.756 6.5417-1.482 9.8457-2.229-.1152-.769-.7688-.85-1.1935-1.126-2.5035-1.621-5.0417-3.183-7.5452-4.805-1.6063-1.043-2.093-2.7834-1.2553-4.2088.8859-1.5024 2.6796-1.8905 4.3928-.8021 2.9225 1.8567 5.79 3.8059 8.6796 5.7149.1536-.114.3064-.232.4633-.348-.2651-1.172-.5302-2.345-.7953-3.5178-.5227-2.3124-1.0914-4.6144-1.5477-6.9383-.3709-1.885.47-3.1132 2.2366-3.4987 1.7174-.3744 3.0735.4476 3.5017 2.2501.8187 3.4538 1.5751 6.9217 2.3629 10.4067.6876-.058.7615-.648 1.0058-1.033 1.6348-2.5569 3.2326-5.1403 4.8714-7.6948 1.0954-1.706 2.7959-2.1702 4.3089-1.2345 1.4654.9083 1.7649 2.6913.6749 4.4516-1.804 2.9078-3.6469 5.7967-5.4595 8.6817.4669.523.9035.164 1.2918.08 2.9604-.649 5.9063-1.346 8.8667-1.994 2.0787-.456 3.5255.324 3.9695 2.075.4653 1.829-.4947 3.202-2.686 3.725-2.7842.664-5.5815 1.255-8.368 1.909-.5149.12-1.1121.074-1.7204.743 2.7121 1.689 5.3581 3.331 8.0031 4.983 2.4563 1.535 3.1142 3.025 2.1175 4.74-1.0195 1.751-2.7823 1.879-5.2359.294-2.643-1.704-5.2506-3.465-7.8733-5.202-.1362.1-.269.199-.4052.3.3264 1.443.6519 2.883.9783 4.327.4694 2.092.9855 4.177 1.3951 6.278.3256 1.67-.6276 3.073-2.2011 3.442-1.6483.39-3.0377-.365-3.475-2.086-.7661-3.007-1.414-6.041-2.1079-9.065-.1116-.478-.2158-.954-.3241-1.433-.2111-.064-.4182-.125-.6253-.185Z" fill="#8F3511"/></g><g opacity=".32" clip-path="url(#c)"><path d="M241.636 89.9283c-1.725 6.0435-1.002 8.5559 3.839 13.7877-5.299-2.077-9.844-.929-13.826 3.472.972-2.465 1.177-4.975.482-7.513-.702-2.5589-2.18-4.5827-4.404-6.2246 5.405 2.0186 9.993 1.0023 13.909-3.5221Z" fill="#8F3511"/></g><defs><clipPath id="a"><path fill="#fff" d="m15.3135 41.1465 26.06232087-6.98337783 6.79205879 25.3483085-26.06232087 6.98337783z"/></clipPath><clipPath id="b"><path fill="#fff" d="m44.9775 93.5294 41.53046625-9.38831823 9.38831824 41.53046625-41.53046626 9.38831823z"/></clipPath><clipPath id="c"><path fill="#fff" d="m232.729 84.7861 17.75568584 10.25125-9.9704 17.26923937-17.75568584-10.25125z"/></clipPath></defs></svg>
